<?xml version="1.0" encoding="UTF-8" standalone="no"?>
<!-- Created with Inkscape (http://www.inkscape.org/) -->

<svg
   width="125mm"
   height="82.999763mm"
   viewBox="0 0 125 82.999763"
   version="1.1"
   id="svg1"
   inkscape:version="1.4 (e7c3feb100, 2024-10-09)"
   sodipodi:docname="mktt-logo.svg"
   inkscape:export-filename="mktt-logo.svg"
   inkscape:export-xdpi="96"
   inkscape:export-ydpi="96"
   xmlns:inkscape="http://www.inkscape.org/namespaces/inkscape"
   xmlns:sodipodi="http://sodipodi.sourceforge.net/DTD/sodipodi-0.dtd"
   xmlns="http://www.w3.org/2000/svg"
   xmlns:svg="http://www.w3.org/2000/svg">
  <sodipodi:namedview
     id="namedview1"
     pagecolor="#ffffff"
     bordercolor="#000000"
     borderopacity="0.25"
     inkscape:showpageshadow="2"
     inkscape:pageopacity="0.0"
     inkscape:pagecheckerboard="0"
     inkscape:deskcolor="#d1d1d1"
     inkscape:document-units="mm"
     inkscape:zoom="3.2326159"
     inkscape:cx="252.89116"
     inkscape:cy="160.39641"
     inkscape:window-width="3440"
     inkscape:window-height="1358"
     inkscape:window-x="0"
     inkscape:window-y="0"
     inkscape:window-maximized="1"
     inkscape:current-layer="layer1" />
  <defs
     id="defs1" />
  <g
     inkscape:label="Layer 1"
     inkscape:groupmode="layer"
     id="layer1"
     transform="translate(-43.965959,-59.702983)">
    <path
       d="M 125.46573,77.301917 V 61.202983 H 45.465959 v 79.999767 h 79.999771 v -15.40724"
       style="fill:none;stroke:#6e7781;stroke-width:3;stroke-dasharray:none;stroke-opacity:1"
       id="path8"
       sodipodi:nodetypes="cccccc" />
    <path
       d="M 85.75589,108.97021 77.465606,86.886303 h -0.141111 q 0.105834,1.093612 0.176389,2.963336 0.07056,1.834445 0.07056,3.84528 V 108.97021 H 74.643382 V 83.781857 h 4.691948 l 7.761116,20.637513 h 0.141111 l 7.902228,-20.637513 h 4.65667 V 108.97021 H 96.65673 V 93.483252 q 0,-1.834445 0.07056,-3.633613 0.105833,-1.799168 0.176389,-2.928058 h -0.141111 l -8.396117,22.048629 z m 39.29946,0 h -3.73945 l -8.92528,-12.029733 -2.57528,2.257779 v 9.771954 h -3.17501 V 83.781857 h 3.17501 v 12.417786 q 1.05833,-1.199445 2.15194,-2.39889 1.09361,-1.199446 2.18723,-2.398891 l 6.80861,-7.620005 h 3.70417 l -9.98362,10.971396 z m 11.39471,0 h -3.175 V 86.568803 h -7.86695 v -2.786946 h 18.87362 v 2.786946 h -7.83167 z m 20.32002,0 h -3.175 V 86.568803 h -7.86695 v -2.786946 h 18.87362 v 2.786946 h -7.83167 z"
       id="text1"
       style="font-size:35.2778px;font-family:'FiraCode Nerd Font Mono';-inkscape-font-specification:'FiraCode Nerd Font Mono, Normal';fill:#6e7781;stroke-width:2;fill-opacity:1"
       aria-label="MKTT" />
    <path
       d="m 89.973503,117.74918 -0.174625,-0.5334 h -0.8001 l -0.174625,0.5334 h -0.523875 l 0.796925,-2.27647 h 0.5969 l 0.803275,2.27647 z m -0.4445,-1.43192 q -0.0127,-0.0476 -0.04127,-0.14288 -0.0254,-0.0952 -0.0508,-0.19367 -0.0254,-0.1016 -0.04127,-0.1651 -0.0127,0.073 -0.0381,0.16827 -0.02222,0.0921 -0.04445,0.18415 -0.02222,0.0889 -0.0381,0.14923 l -0.161925,0.49212 h 0.574675 z m 3.902074,1.43192 h -0.5461 l -0.593725,-0.95567 -0.2032,0.14605 v 0.80962 h -0.479425 v -2.26695 h 0.479425 v 1.03823 q 0.04762,-0.0667 0.09525,-0.13335 0.04762,-0.0667 0.09525,-0.13335 l 0.612775,-0.77153 h 0.5334 l -0.790575,1.0033 z m 1.831973,-0.86995 q 0,0.4318 -0.2286,0.66675 -0.225425,0.23495 -0.61595,0.23495 -0.244475,0 -0.434975,-0.10477 -0.187325,-0.10478 -0.295275,-0.3048 -0.10795,-0.2032 -0.10795,-0.49213 0,-0.4318 0.225425,-0.66357 0.2286,-0.23178 0.6223,-0.23178 0.244475,0 0.4318,0.10478 0.187325,0.1016 0.295275,0.30162 0.10795,0.20003 0.10795,0.48895 z m -1.1938,0 q 0,0.254 0.08255,0.39688 0.08255,0.1397 0.27305,0.1397 0.18415,0 0.2667,-0.1397 0.08255,-0.14288 0.08255,-0.39688 0,-0.25717 -0.08255,-0.3937 -0.08255,-0.13652 -0.269875,-0.13652 -0.187325,0 -0.269875,0.13652 -0.08255,0.13653 -0.08255,0.3937 z m 2.3241,0.52388 q 0.07937,0 0.1524,-0.0159 0.07303,-0.0159 0.14605,-0.0381 v 0.35243 q -0.0762,0.0318 -0.1905,0.054 -0.111125,0.0254 -0.244475,0.0254 -0.155575,0 -0.2794,-0.0508 -0.12065,-0.0508 -0.193675,-0.17462 -0.06985,-0.127 -0.06985,-0.34925 v -0.83503 h -0.225425 v -0.20002 l 0.26035,-0.15875 0.136525,-0.36513 h 0.301625 v 0.3683 h 0.485775 v 0.3556 h -0.485775 v 0.83503 q 0,0.0984 0.05715,0.14922 0.05715,0.0476 0.149225,0.0476 z m 1.111251,0.34607 h -0.479425 v -2.413 h 0.479425 z m 0.711201,-2.41617 q 0.104775,0 0.180975,0.0508 0.07937,0.0476 0.07937,0.18415 0,0.13017 -0.07937,0.18097 -0.0762,0.0508 -0.180975,0.0508 -0.10795,0 -0.18415,-0.0508 -0.0762,-0.0508 -0.0762,-0.18097 0,-0.13653 0.0762,-0.18415 0.0762,-0.0508 0.18415,-0.0508 z m 0.238125,0.68262 v 1.73355 h -0.479425 v -1.73355 z m 1.457324,-0.0318 q 0.285749,0 0.450849,0.1524 0.1651,0.14923 0.1651,0.4826 v 1.1303 h -0.47625 v -1.00965 q 0,-0.37465 -0.279399,-0.37465 -0.2159,0 -0.295275,0.14923 -0.0762,0.14605 -0.0762,0.42227 v 0.8128 h -0.479425 v -1.73355 h 0.3683 l 0.06668,0.23178 h 0.01905 q 0.17145,-0.26353 0.536575,-0.26353 z m 2.911469,1.7653 -0.5461,-1.778 h -0.0127 q 0.003,0.0635 0.01,0.1905 0.006,0.127 0.0127,0.27305 0.006,0.14288 0.006,0.26035 v 1.0541 h -0.42863 v -2.26695 h 0.65405 l 0.53658,1.73355 h 0.01 l 0.56833,-1.73355 h 0.65405 v 2.26695 h -0.44768 v -1.07315 q 0,-0.10795 0.003,-0.24765 0.006,-0.1397 0.01,-0.26352 0.006,-0.127 0.01,-0.1905 h -0.0127 l -0.5842,1.77482 z m 3.57823,-1.73355 v 1.73355 h -0.3683 l -0.0603,-0.22225 h -0.0286 q -0.0825,0.13335 -0.22542,0.19368 -0.14288,0.0603 -0.30798,0.0603 -0.27622,0 -0.44767,-0.14922 -0.16828,-0.1524 -0.16828,-0.48578 v -1.1303 h 0.4826 v 1.00965 q 0,0.18415 0.0635,0.2794 0.0667,0.0921 0.20955,0.0921 0.2159,0 0.2921,-0.14605 0.0794,-0.14605 0.0794,-0.42228 v -0.8128 z m 0.94615,1.73355 h -0.47942 v -2.413 h 0.47942 z m 1.21285,-0.34607 q 0.0794,0 0.1524,-0.0159 0.073,-0.0159 0.14605,-0.0381 v 0.35243 q -0.0762,0.0318 -0.1905,0.054 -0.11112,0.0254 -0.24447,0.0254 -0.15558,0 -0.2794,-0.0508 -0.12065,-0.0508 -0.19368,-0.17462 -0.0699,-0.127 -0.0699,-0.34925 v -0.83503 h -0.22542 v -0.20002 l 0.26035,-0.15875 0.13652,-0.36513 h 0.30163 v 0.3683 h 0.48577 v 0.3556 h -0.48577 v 0.83503 q 0,0.0984 0.0572,0.14922 0.0571,0.0476 0.14922,0.0476 z m 0.8763,-2.0701 q 0.10478,0 0.18098,0.0508 0.0794,0.0476 0.0794,0.18415 0,0.13017 -0.0794,0.18097 -0.0762,0.0508 -0.18098,0.0508 -0.10795,0 -0.18415,-0.0508 -0.0762,-0.0508 -0.0762,-0.18097 0,-0.13653 0.0762,-0.18415 0.0762,-0.0508 0.18415,-0.0508 z m 0.23813,0.68262 v 1.73355 h -0.47943 v -1.73355 z m 1.43827,-0.0318 q 0.29845,0 0.47308,0.2286 0.1778,0.22543 0.1778,0.66675 0,0.4445 -0.18733,0.6731 -0.18415,0.2286 -0.47625,0.2286 -0.1905,0 -0.3048,-0.0667 -0.11112,-0.0699 -0.17462,-0.1524 h -0.0191 q 0.006,0.0572 0.0127,0.13335 0.006,0.073 0.006,0.1524 v 0.66357 h -0.47943 v -2.49555 h 0.39053 l 0.0667,0.22543 h 0.0222 q 0.0699,-0.10478 0.18415,-0.18098 0.1143,-0.0762 0.30797,-0.0762 z m -0.15875,0.381 q -0.18415,0 -0.25717,0.1143 -0.0699,0.1143 -0.0762,0.34608 v 0.0508 q 0,0.25082 0.0699,0.38417 0.073,0.13335 0.2667,0.13335 0.16192,0 0.2413,-0.13335 0.0794,-0.13335 0.0794,-0.38735 0,-0.508 -0.32385,-0.508 z m 1.67323,1.3843 h -0.47943 v -2.413 h 0.47943 z m 1.24142,-1.7653 q 0.32385,0 0.4953,0.15558 0.17463,0.1524 0.17463,0.45402 v 1.1557 h -0.33338 l -0.0921,-0.23495 h -0.0127 q -0.1143,0.1397 -0.23813,0.2032 -0.12065,0.0635 -0.33972,0.0635 -0.2286,0 -0.381,-0.13335 -0.1524,-0.13335 -0.1524,-0.40957 0,-0.26988 0.19685,-0.4064 0.19685,-0.1397 0.58737,-0.15558 l 0.28893,-0.01 v -0.054 q 0,-0.15557 -0.073,-0.2159 -0.0699,-0.0635 -0.19367,-0.0635 -0.11748,0 -0.2413,0.0381 -0.12383,0.0381 -0.24448,0.0921 l -0.1397,-0.32703 q 0.13653,-0.0699 0.31115,-0.11112 0.1778,-0.0413 0.38735,-0.0413 z m 0.0127,0.97155 q -0.2286,0.006 -0.3175,0.073 -0.0857,0.0667 -0.0857,0.18732 0,0.11113 0.0603,0.1651 0.0635,0.0508 0.16828,0.0508 0.14922,0 0.25082,-0.0889 0.10478,-0.0889 0.10478,-0.254 v -0.14287 z m 1.86056,0.44768 q 0.0794,0 0.1524,-0.0159 0.073,-0.0159 0.14605,-0.0381 v 0.35243 q -0.0762,0.0318 -0.1905,0.054 -0.11113,0.0254 -0.24448,0.0254 -0.15557,0 -0.2794,-0.0508 -0.12065,-0.0508 -0.19367,-0.17462 -0.0699,-0.127 -0.0699,-0.34925 v -0.83503 h -0.22543 v -0.20002 l 0.26035,-0.15875 0.13653,-0.36513 h 0.30162 v 0.3683 h 0.48578 v 0.3556 h -0.48578 v 0.83503 q 0,0.0984 0.0571,0.14922 0.0572,0.0476 0.14923,0.0476 z m 1.60655,-1.03188 h -0.40958 v 1.37795 h -0.47307 v -1.37795 h -0.26035 v -0.2286 l 0.26035,-0.127 v -0.127 q 0,-0.22225 0.073,-0.3429 0.0762,-0.12382 0.21273,-0.17462 0.1397,-0.0508 0.32702,-0.0508 0.1397,0 0.25083,0.0222 0.1143,0.0222 0.18415,0.0508 l -0.12065,0.34608 q -0.054,-0.0159 -0.11748,-0.0286 -0.0635,-0.0159 -0.14605,-0.0159 -0.0984,0 -0.14605,0.0603 -0.0445,0.0603 -0.0445,0.1524 v 0.10795 h 0.40958 z m 1.85419,0.508 q 0,0.4318 -0.2286,0.66675 -0.22542,0.23495 -0.61595,0.23495 -0.24447,0 -0.43497,-0.10477 -0.18733,-0.10478 -0.29528,-0.3048 -0.10795,-0.2032 -0.10795,-0.49213 0,-0.4318 0.22543,-0.66357 0.2286,-0.23178 0.6223,-0.23178 0.24447,0 0.4318,0.10478 0.18732,0.1016 0.29527,0.30162 0.10795,0.20003 0.10795,0.48895 z m -1.1938,0 q 0,0.254 0.0825,0.39688 0.0825,0.1397 0.27305,0.1397 0.18415,0 0.2667,-0.1397 0.0825,-0.14288 0.0825,-0.39688 0,-0.25717 -0.0825,-0.3937 -0.0825,-0.13652 -0.26987,-0.13652 -0.18733,0 -0.26988,0.13652 -0.0825,0.13653 -0.0825,0.3937 z m 2.53683,-0.89535 q 0.0476,0 0.1016,0.006 0.054,0.006 0.0889,0.0127 l -0.0476,0.44768 q -0.0349,-0.01 -0.0825,-0.0127 -0.0476,-0.006 -0.1143,-0.006 -0.0984,0 -0.19685,0.0413 -0.0984,0.0413 -0.1651,0.13653 -0.0635,0.0953 -0.0635,0.26035 v 0.87947 h -0.47942 v -1.73355 h 0.36512 l 0.0699,0.2921 h 0.0222 q 0.0762,-0.13335 0.20637,-0.2286 0.13335,-0.0953 0.29528,-0.0953 z m 2.49555,0 q 0.29845,0 0.45085,0.1524 0.1524,0.14923 0.1524,0.4826 v 1.1303 h -0.47625 v -1.00965 q 0,-0.20002 -0.0667,-0.28575 -0.0667,-0.0889 -0.20003,-0.0889 -0.18732,0 -0.26352,0.13653 -0.073,0.13335 -0.073,0.381 v 0.86677 h -0.47942 v -1.00965 q 0,-0.19367 -0.0635,-0.28257 -0.0635,-0.0921 -0.19685,-0.0921 -0.19685,0 -0.26988,0.14923 -0.0698,0.14605 -0.0698,0.42227 v 0.8128 h -0.47942 v -1.73355 h 0.3683 l 0.0698,0.22225 h 0.0159 q 0.073,-0.11747 0.20638,-0.18415 0.13335,-0.0699 0.31115,-0.0699 0.19367,0 0.32067,0.0667 0.13018,0.0667 0.2032,0.19367 h 0.0159 q 0.0857,-0.13017 0.22225,-0.19367 0.13652,-0.0667 0.30162,-0.0667 z m 2.89877,1.7653 -0.5461,-1.778 h -0.0127 q 0.003,0.0635 0.01,0.1905 0.006,0.127 0.0127,0.27305 0.006,0.14288 0.006,0.26035 v 1.0541 h -0.42863 v -2.26695 h 0.65405 l 0.53658,1.73355 h 0.01 l 0.56833,-1.73355 h 0.65405 v 2.26695 h -0.44768 v -1.07315 q 0,-0.10795 0.003,-0.24765 0.006,-0.1397 0.01,-0.26352 0.006,-0.127 0.01,-0.1905 h -0.0127 l -0.5842,1.77482 z m 4.08306,-1.13665 q 0,0.37783 -0.13653,0.65723 -0.13335,0.2794 -0.4191,0.40957 l 0.54928,0.6096 h -0.62548 l -0.40322,-0.508 q -0.01,0 -0.0222,0 -0.0127,0 -0.0222,0 -0.3683,0 -0.6096,-0.14605 -0.23813,-0.14605 -0.3556,-0.40957 -0.1143,-0.26353 -0.1143,-0.61595 0,-0.34925 0.1143,-0.6096 0.11747,-0.26353 0.3556,-0.4064 0.2413,-0.14605 0.61277,-0.14605 0.3683,0 0.60643,0.14605 0.2413,0.14287 0.3556,0.4064 0.1143,0.26035 0.1143,0.61277 z m -1.64783,0 q 0,0.3556 0.13335,0.5588 0.13653,0.20003 0.43498,0.20003 0.3048,0 0.43497,-0.20003 0.13335,-0.2032 0.13335,-0.5588 0,-0.3556 -0.13335,-0.5588 -0.13017,-0.2032 -0.4318,-0.2032 -0.30162,0 -0.43815,0.2032 -0.13335,0.2032 -0.13335,0.5588 z m 2.88925,1.13665 h -0.48577 v -1.86372 h -0.61278 v -0.40323 h 1.71133 v 0.40323 h -0.61278 z m 1.89548,0 h -0.48578 v -1.86372 h -0.61277 v -0.40323 h 1.71132 v 0.40323 h -0.61277 z m 2.2098,0 h -0.47943 v -2.413 h 0.47943 z m 0.7112,-2.41617 q 0.10478,0 0.18098,0.0508 0.0794,0.0476 0.0794,0.18415 0,0.13017 -0.0794,0.18097 -0.0762,0.0508 -0.18098,0.0508 -0.10795,0 -0.18415,-0.0508 -0.0762,-0.0508 -0.0762,-0.18097 0,-0.13653 0.0762,-0.18415 0.0762,-0.0508 0.18415,-0.0508 z m 0.23813,0.68262 v 1.73355 h -0.47943 v -1.73355 z m 0.94614,-0.11747 q 0,0.0984 -0.006,0.18732 -0.006,0.0889 -0.0127,0.15558 h 0.019 q 0.0699,-0.10795 0.18733,-0.18098 0.11747,-0.0762 0.3048,-0.0762 0.28892,0 0.4699,0.2286 0.18097,0.22543 0.18097,0.66675 0,0.4445 -0.18415,0.6731 -0.18097,0.2286 -0.47942,0.2286 -0.1905,0 -0.30163,-0.0667 -0.10795,-0.0699 -0.1778,-0.1524 h -0.0317 l -0.0794,0.18732 h -0.3683 v -2.413 h 0.47942 z m 0.33655,0.46672 q -0.18097,0 -0.26035,0.1143 -0.0762,0.1143 -0.0762,0.35878 v 0.0572 q 0,0.24765 0.073,0.37465 0.0762,0.12382 0.26987,0.12382 0.15558,0 0.23495,-0.13335 0.0794,-0.13335 0.0794,-0.38735 0,-0.508 -0.32068,-0.508 z m 2.14948,-0.381 q 0.0476,0 0.1016,0.006 0.054,0.006 0.0889,0.0127 l -0.0476,0.44768 q -0.0349,-0.01 -0.0825,-0.0127 -0.0476,-0.006 -0.1143,-0.006 -0.0984,0 -0.19685,0.0413 -0.0984,0.0413 -0.1651,0.13653 -0.0635,0.0953 -0.0635,0.26035 v 0.87947 h -0.47942 v -1.73355 h 0.36512 l 0.0699,0.2921 h 0.0222 q 0.0762,-0.13335 0.20637,-0.2286 0.13335,-0.0953 0.29528,-0.0953 z m 1.17157,0 q 0.32385,0 0.4953,0.15558 0.17463,0.1524 0.17463,0.45402 v 1.1557 h -0.33338 l -0.0921,-0.23495 h -0.0127 q -0.1143,0.1397 -0.23813,0.2032 -0.12065,0.0635 -0.33972,0.0635 -0.2286,0 -0.381,-0.13335 -0.1524,-0.13335 -0.1524,-0.40957 0,-0.26988 0.19685,-0.4064 0.19685,-0.1397 0.58737,-0.15558 l 0.28893,-0.01 v -0.054 q 0,-0.15557 -0.073,-0.2159 -0.0699,-0.0635 -0.19367,-0.0635 -0.11748,0 -0.2413,0.0381 -0.12383,0.0381 -0.24448,0.0921 l -0.1397,-0.32703 q 0.13653,-0.0699 0.31115,-0.11112 0.1778,-0.0413 0.38735,-0.0413 z m 0.0127,0.97155 q -0.2286,0.006 -0.3175,0.073 -0.0857,0.0667 -0.0857,0.18732 0,0.11113 0.0603,0.1651 0.0635,0.0508 0.16828,0.0508 0.14922,0 0.25082,-0.0889 0.10478,-0.0889 0.10478,-0.254 v -0.14287 z m 2.07328,-0.97155 q 0.0476,0 0.1016,0.006 0.054,0.006 0.0889,0.0127 l -0.0476,0.44768 q -0.0349,-0.01 -0.0825,-0.0127 -0.0476,-0.006 -0.1143,-0.006 -0.0984,0 -0.19685,0.0413 -0.0984,0.0413 -0.1651,0.13653 -0.0635,0.0953 -0.0635,0.26035 v 0.87947 h -0.47942 v -1.73355 h 0.36512 l 0.0698,0.2921 h 0.0222 q 0.0762,-0.13335 0.20637,-0.2286 0.13335,-0.0953 0.29528,-0.0953 z m 0.2286,0.0318 h 0.50483 l 0.32702,0.9906 q 0.0222,0.0699 0.0413,0.14923 0.0222,0.0762 0.0317,0.14605 h 0.0127 q 0.01,-0.0667 0.0318,-0.14605 0.0254,-0.0794 0.0476,-0.14923 l 0.32068,-0.9906 h 0.4953 l -0.7112,1.8923 q -0.10795,0.2921 -0.27623,0.44768 -0.1651,0.15557 -0.47307,0.15557 -0.0825,0 -0.14288,-0.01 -0.0571,-0.006 -0.0984,-0.0159 v -0.37782 q 0.0317,0.006 0.0825,0.0127 0.0508,0.006 0.10477,0.006 0.14605,0 0.22543,-0.0857 0.0794,-0.0825 0.127,-0.20637 l 0.0381,-0.0984 z"
       id="text8"
       style="font-weight:bold;font-size:3.175px;font-family:'FiraCode Nerd Font Mono';-inkscape-font-specification:'FiraCode Nerd Font Mono, Bold';fill:#6e7781;stroke-width:2.5;fill-opacity:1"
       aria-label="A Kotlin Multiplatform MQTT library" />
  </g>
</svg>
